<svg xmlns="http://www.w3.org/2000/svg" width="64" height="64" viewBox="0 0 64 64"><defs><style>.a{fill:#262626;}</style></defs><path class="a" d="M24.034,0H0V24.034H24.034ZM20.029,20.029H4.006V4.006H20.029Z"/><path class="a" d="M2,2h8.011v8.011H2Z" transform="translate(6.011 6.011)"/><path class="a" d="M0,34.034H24.034V10H0ZM4.006,14.006H20.029V30.029H4.006Z" transform="translate(0 29.966)"/><path class="a" d="M2,12h8.011v8.011H2Z" transform="translate(6.011 35.977)"/><path class="a" d="M10,0V24.034H34.034V0ZM30.029,20.029H14.006V4.006H30.029Z" transform="translate(29.966)"/><path class="a" d="M12,2h8.011v8.011H12Z" transform="translate(35.977 6.011)"/><path class="a" d="M8.011,7H0v8.011H12.017V11.006H8.011Z" transform="translate(0 20.994)"/><path class="a" d="M7,9h8.011v8.011H7Z" transform="translate(20.994 26.993)"/><path class="a" d="M3,7h8.011v4.006H3Z" transform="translate(8.998 20.997)"/><path class="a" d="M15.011,12H7v4.006h4.006v4.006h4.006V12Z" transform="translate(20.994 35.977)"/><path class="a" d="M9.006,7v4.006H5v4.006h8.011V7Z" transform="translate(14.996 20.994)"/><path class="a" d="M8,4h4.006v8.011H8Z" transform="translate(23.997 11.997)"/><path class="a" d="M12.006,11.006v4.006h8.011V7H8v4.006Z" transform="translate(23.989 20.994)"/><path class="a" d="M7,6h4.006v4.006H7Z" transform="translate(20.997 17.998)"/><path class="a" d="M9,14h8.011v8.011H9Z" transform="translate(26.993 41.989)"/><path class="a" d="M7,14h4.006v8.011H7Z" transform="translate(20.997 41.989)"/><path class="a" d="M9,11h4.006v4.006H9Z" transform="translate(26.997 32.996)"/><path class="a" d="M15.011,12.017V4.006H11.006V0H7V16.023h4.006V12.017Z" transform="translate(20.994)"/><path class="a" d="M12,14h4.006v8.011H12Z" transform="translate(35.995 41.989)"/><path class="a" d="M12,12h8.011v4.006H12Z" transform="translate(35.977 35.995)"/><path class="a" d="M11,13h4.006v4.006H11Z" transform="translate(32.996 38.983)"/><path class="a" d="M10,12h4.006v4.006H10Z" transform="translate(29.996 35.995)"/><path class="a" d="M14,10v4.006h4.006v4.006h4.006V10H14Z" transform="translate(41.989 29.992)"/><path class="a" d="M18.006,13H14V25.017h8.011V17.006H18.006Z" transform="translate(41.989 38.983)"/><path class="a" d="M10,13.006v4.006H22.017V9H14.006v4.006Z" transform="translate(29.987 26.993)"/><path class="a" d="M12,7v4.006h8.011v4.006h8.011V7H12Z" transform="translate(35.977 20.994)"/></svg>